<svg width="582" height="522" viewBox="0 0 582 522" fill="none" xmlns="http://www.w3.org/2000/svg">
<g id="bla_bla_bla 1" clip-path="url(#clip0)">
<path id="Vector" d="M451.377 519.527H436.617C434.894 519.525 433.242 518.839 432.023 517.621C430.805 516.402 430.119 514.75 430.117 513.027V390.012C430.119 388.289 430.805 386.637 432.023 385.418C433.242 384.2 434.894 383.514 436.617 383.512H451.377C453.1 383.514 454.752 384.2 455.971 385.418C457.19 386.637 457.875 388.289 457.877 390.012V513.027C457.875 514.75 457.19 516.402 455.971 517.621C454.752 518.839 453.1 519.525 451.377 519.527V519.527Z" fill="#6C63FF"/>
<path id="Vector_2" d="M472.628 354.305L461.081 345.111C460.465 344.62 459.758 344.256 459.001 344.038C458.243 343.821 457.45 343.755 456.668 343.843C455.885 343.932 455.127 344.174 454.438 344.556C453.748 344.938 453.141 345.451 452.65 346.068L376.026 442.303C375.535 442.919 375.17 443.626 374.953 444.384C374.735 445.141 374.669 445.934 374.758 446.717C374.847 447.499 375.089 448.257 375.47 448.947C375.852 449.636 376.366 450.243 376.982 450.734L377.296 450.984L414.57 510.127C414.99 510.794 415.537 511.371 416.18 511.826C416.824 512.281 417.55 512.605 418.319 512.78C419.087 512.954 419.882 512.975 420.659 512.842C421.435 512.709 422.178 512.424 422.845 512.004L435.332 504.135C436.678 503.286 437.632 501.938 437.984 500.386C438.336 498.834 438.057 497.206 437.208 495.86L406.449 447.053L473.584 362.736C474.075 362.12 474.44 361.413 474.657 360.655C474.875 359.898 474.941 359.105 474.852 358.322C474.763 357.54 474.521 356.782 474.14 356.092C473.758 355.403 473.244 354.796 472.628 354.305V354.305Z" fill="#6C63FF"/>
<path id="Vector_3" d="M461.196 427.612H390.196C387.943 427.609 385.782 426.713 384.189 425.119C382.595 423.526 381.699 421.365 381.696 419.112V402.112C381.699 399.858 382.595 397.698 384.189 396.104C385.782 394.511 387.943 393.614 390.196 393.612H461.196C463.45 393.614 465.61 394.511 467.204 396.104C468.797 397.698 469.694 399.858 469.696 402.112V419.112C469.694 421.365 468.797 423.526 467.204 425.119C465.61 426.713 463.45 427.609 461.196 427.612V427.612Z" fill="#CCCCCC"/>
<path id="Vector_4" d="M581.852 518.867H257.819V521.108H581.852V518.867Z" fill="#3F3D56"/>
<path id="Vector_5" d="M436.185 239.7C465.743 239.7 489.704 215.739 489.704 186.181C489.704 156.623 465.743 132.662 436.185 132.662C406.627 132.662 382.666 156.623 382.666 186.181C382.666 215.739 406.627 239.7 436.185 239.7Z" fill="#6C63FF"/>
<path id="Vector_6" d="M491.324 403.974H381.262C379.538 403.972 377.886 403.287 376.668 402.068C375.449 400.85 374.764 399.197 374.762 397.474L396.771 284.868C396.799 275.215 400.651 265.968 407.484 259.15C414.317 252.333 423.574 248.503 433.227 248.499H440.369C450.034 248.509 459.3 252.354 466.135 259.188C472.969 266.022 476.813 275.288 476.824 284.954L497.815 397.382C497.826 398.242 497.665 399.096 497.344 399.894C497.023 400.691 496.547 401.418 495.943 402.03C495.34 402.643 494.621 403.131 493.828 403.464C493.035 403.798 492.184 403.971 491.324 403.974V403.974Z" fill="#2F2E41"/>
<path id="Vector_7" d="M394.469 204.05C391.162 203.957 387.046 203.842 383.88 201.527C382.936 200.809 382.16 199.894 381.608 198.845C381.055 197.796 380.738 196.639 380.68 195.455C380.622 194.613 380.76 193.77 381.083 192.99C381.406 192.211 381.904 191.517 382.54 190.962C384.196 189.562 386.613 189.235 389.218 190L386.519 170.274L388.501 170.003L391.673 193.194L390.019 192.434C388.1 191.554 385.467 191.106 383.831 192.489C383.429 192.851 383.116 193.3 382.916 193.802C382.717 194.304 382.635 194.846 382.679 195.384C382.727 196.266 382.965 197.126 383.376 197.908C383.787 198.689 384.361 199.373 385.06 199.912C387.523 201.714 390.805 201.946 394.525 202.051L394.469 204.05Z" fill="#2F2E41"/>
<path id="Vector_8" d="M410.72 171.976H399.948V173.976H410.72V171.976Z" fill="#2F2E41"/>
<path id="Vector_9" d="M335.09 358.387L344.538 369.725C346.66 372.271 350.443 372.615 352.989 370.494L447.493 291.744C450.038 289.623 450.382 285.839 448.261 283.294L438.813 271.955C436.691 269.409 432.908 269.065 430.362 271.187L335.858 349.936C333.312 352.057 332.968 355.841 335.09 358.387Z" fill="#6C63FF"/>
<path id="Vector_10" d="M452.991 289.396L414.011 326.438C412.796 327.593 411.182 328.236 409.505 328.233C407.828 328.23 406.216 327.582 405.004 326.422L387.37 309.545C386.673 308.878 386.133 308.065 385.788 307.165C385.443 306.265 385.302 305.299 385.375 304.337C385.448 303.376 385.733 302.443 386.21 301.605C386.687 300.766 387.343 300.044 388.132 299.49L434.36 267.032C435.69 265.927 437.404 265.394 439.126 265.55C440.849 265.706 442.439 266.538 443.549 267.863L453.827 280.198C454.935 281.529 455.468 283.245 455.312 284.97C455.155 286.695 454.32 288.287 452.991 289.396V289.396Z" fill="#2F2E41"/>
<path id="Vector_11" d="M439.037 131.974C436.783 121.673 439.565 110.787 445.594 102.253C451.737 93.559 461.355 87.7455 471.555 85.0915C491.328 79.9468 512.321 87.13 526.965 100.838C542.768 115.631 549.817 137.138 548.803 158.488C547.774 180.135 538.458 200.459 524.479 216.803C517.596 224.81 509.767 231.951 501.162 238.07C496.918 241.101 491.953 245.049 486.492 245.137C482.534 245.201 477.477 242.637 478.518 237.964C478.877 236.355 480.007 234.607 481.786 234.397C483.68 234.173 483.703 231.17 481.786 231.397C477.132 231.946 474.422 236.986 475.682 241.365C477.076 246.205 482.69 248.51 487.35 248.09C493.259 247.558 498.335 243.78 503.002 240.427C507.664 237.086 512.117 233.462 516.335 229.574C533.072 214.106 546.005 193.961 550.276 171.361C554.578 148.596 550.338 123.88 535.52 105.619C522.075 89.0494 500.457 78.3506 478.902 80.7201C467.575 81.9652 456.522 86.584 448.279 94.5616C444.236 98.4588 441.004 103.117 438.768 108.267C436.532 113.418 435.336 118.96 435.249 124.575C435.248 127.331 435.548 130.08 436.144 132.771C436.557 134.657 439.449 133.859 439.037 131.974V131.974Z" fill="#2F2E41"/>
<path id="Vector_12" d="M446.06 133.561C445.656 129.882 446.098 126.159 447.353 122.676C448.608 119.194 450.641 116.045 453.299 113.469C455.957 110.893 459.168 108.958 462.688 107.813C466.208 106.668 469.943 106.342 473.608 106.861C475.518 107.102 475.501 104.099 473.608 103.861C469.546 103.342 465.42 103.747 461.537 105.043C457.653 106.339 454.112 108.495 451.176 111.349C448.241 114.203 445.987 117.682 444.581 121.528C443.176 125.373 442.656 129.486 443.06 133.561C443.243 135.466 446.245 135.485 446.06 133.561Z" fill="#2F2E41"/>
<path id="Vector_13" d="M434.142 121.275C433.072 121.274 432.036 121.655 431.221 122.348C430.406 123.042 429.865 124.003 429.695 125.059C429.524 126.115 429.736 127.198 430.292 128.112C430.847 129.027 431.711 129.713 432.727 130.049H432.728L446.971 134.752C448.104 135.126 449.34 135.035 450.406 134.498C451.471 133.961 452.28 133.023 452.655 131.889C453.029 130.756 452.937 129.521 452.4 128.455C451.864 127.389 450.925 126.58 449.792 126.206L435.548 121.502C435.094 121.352 434.619 121.276 434.142 121.275V121.275Z" fill="#2F2E41"/>
<path id="Vector_14" d="M155.999 311.556H155.776C69.8816 311.556 3.05176e-05 241.675 3.05176e-05 155.778C3.05176e-05 69.8815 69.8816 3.8147e-06 155.778 3.8147e-06C241.674 3.8147e-06 311.556 69.8815 311.556 155.778C311.548 176.848 307.269 197.697 298.977 217.067C290.686 236.436 278.554 253.924 263.314 268.474L294.655 303.606L293.048 304.287C267.071 315.302 240.75 300.287 229.992 292.766C207.272 305.081 181.842 311.539 155.999 311.556ZM155.778 2.50158C71.2612 2.50158 2.50156 71.2612 2.50156 155.778C2.50156 240.294 71.2612 309.055 155.778 309.055C181.539 309.076 206.888 302.591 229.474 290.2L230.162 289.821L230.801 290.277C240.567 297.226 265.625 312.081 290.441 302.639L259.826 268.321L260.717 267.487C275.971 253.151 288.129 235.845 296.442 216.633C304.755 197.422 309.047 176.712 309.055 155.779C309.055 71.2612 240.295 2.50158 155.778 2.50158V2.50158Z" fill="#3F3D56"/>
<path id="Vector_15" d="M204.022 130.29C172.054 129.957 140.09 129.385 108.123 128.951C97.4657 128.806 86.8085 128.679 76.1511 128.57C66.9683 128.475 66.9448 114.195 76.1511 114.291C108.119 114.624 140.084 115.196 172.05 115.63C182.707 115.775 193.365 115.901 204.022 116.011C213.205 116.106 213.228 130.386 204.022 130.29V130.29Z" fill="#6C63FF"/>
<path id="Vector_16" d="M239.044 163.608L109.841 162.269L73.0955 161.888C63.9127 161.793 63.8892 147.514 73.0955 147.609L202.298 148.948L239.044 149.328C248.227 149.424 248.25 163.703 239.044 163.608Z" fill="#6C63FF"/>
<path id="Vector_17" d="M239.044 196.925L109.841 195.587L73.0955 195.206C63.9127 195.111 63.8892 180.832 73.0955 180.927L202.298 182.266L239.044 182.646C248.227 182.741 248.25 197.021 239.044 196.925Z" fill="#6C63FF"/>
<path id="Vector_18" d="M311 330.556C315.971 330.556 320 326.527 320 321.556C320 316.586 315.971 312.556 311 312.556C306.029 312.556 302 316.586 302 321.556C302 326.527 306.029 330.556 311 330.556Z" fill="#E6E6E6"/>
<path id="bla_bla_bla" d="M98.0215 233.957C98.6335 233.957 99.2129 234.019 99.7598 234.143C100.307 234.26 100.782 234.449 101.186 234.709C101.596 234.969 101.918 235.305 102.152 235.715C102.393 236.125 102.514 236.62 102.514 237.199C102.514 237.603 102.471 237.964 102.387 238.283C102.309 238.602 102.191 238.889 102.035 239.143C101.885 239.39 101.703 239.608 101.488 239.797C101.273 239.986 101.029 240.148 100.756 240.285V240.383C101.062 240.454 101.361 240.581 101.654 240.764C101.954 240.946 102.221 241.18 102.455 241.467C102.689 241.753 102.878 242.089 103.021 242.473C103.171 242.85 103.246 243.27 103.246 243.732C103.246 244.514 103.119 245.178 102.865 245.725C102.611 246.265 102.26 246.704 101.811 247.043C101.368 247.375 100.84 247.619 100.229 247.775C99.6165 247.925 98.9525 248 98.2363 248H92.7871V233.957H98.0215ZM97.1035 239.465C97.5918 239.465 98.0085 239.432 98.3535 239.367C98.6986 239.302 98.9785 239.198 99.1934 239.055C99.4147 238.911 99.5775 238.726 99.6816 238.498C99.7858 238.27 99.8379 237.993 99.8379 237.668C99.8379 237.336 99.7858 237.056 99.6816 236.828C99.5775 236.6 99.4147 236.415 99.1934 236.271C98.9785 236.128 98.6986 236.024 98.3535 235.959C98.0085 235.894 97.5918 235.861 97.1035 235.861H95.4629V239.465H97.1035ZM97.4551 246.096C98.4837 246.096 99.2585 245.913 99.7793 245.549C100.307 245.184 100.57 244.579 100.57 243.732C100.57 242.886 100.307 242.281 99.7793 241.916C99.2585 241.551 98.4837 241.369 97.4551 241.369H95.4629V246.096H97.4551ZM108.803 233.957V245.998H114.281V248H106.078V233.957H108.803ZM123.686 233.957L128.988 248H126.234L124.633 243.684H120.004L118.402 248H115.648L120.951 233.957H123.686ZM122.318 236.857L120.727 241.721H123.91L122.318 236.857ZM142.025 233.957C142.637 233.957 143.217 234.019 143.764 234.143C144.311 234.26 144.786 234.449 145.189 234.709C145.6 234.969 145.922 235.305 146.156 235.715C146.397 236.125 146.518 236.62 146.518 237.199C146.518 237.603 146.475 237.964 146.391 238.283C146.312 238.602 146.195 238.889 146.039 239.143C145.889 239.39 145.707 239.608 145.492 239.797C145.277 239.986 145.033 240.148 144.76 240.285V240.383C145.066 240.454 145.365 240.581 145.658 240.764C145.958 240.946 146.225 241.18 146.459 241.467C146.693 241.753 146.882 242.089 147.025 242.473C147.175 242.85 147.25 243.27 147.25 243.732C147.25 244.514 147.123 245.178 146.869 245.725C146.615 246.265 146.264 246.704 145.814 247.043C145.372 247.375 144.844 247.619 144.232 247.775C143.62 247.925 142.956 248 142.24 248H136.791V233.957H142.025ZM141.107 239.465C141.596 239.465 142.012 239.432 142.357 239.367C142.702 239.302 142.982 239.198 143.197 239.055C143.419 238.911 143.581 238.726 143.686 238.498C143.79 238.27 143.842 237.993 143.842 237.668C143.842 237.336 143.79 237.056 143.686 236.828C143.581 236.6 143.419 236.415 143.197 236.271C142.982 236.128 142.702 236.024 142.357 235.959C142.012 235.894 141.596 235.861 141.107 235.861H139.467V239.465H141.107ZM141.459 246.096C142.488 246.096 143.262 245.913 143.783 245.549C144.311 245.184 144.574 244.579 144.574 243.732C144.574 242.886 144.311 242.281 143.783 241.916C143.262 241.551 142.488 241.369 141.459 241.369H139.467V246.096H141.459ZM152.807 233.957V245.998H158.285V248H150.082V233.957H152.807ZM167.689 233.957L172.992 248H170.238L168.637 243.684H164.008L162.406 248H159.652L164.955 233.957H167.689ZM166.322 236.857L164.73 241.721H167.914L166.322 236.857ZM186.029 233.957C186.641 233.957 187.221 234.019 187.768 234.143C188.314 234.26 188.79 234.449 189.193 234.709C189.604 234.969 189.926 235.305 190.16 235.715C190.401 236.125 190.521 236.62 190.521 237.199C190.521 237.603 190.479 237.964 190.395 238.283C190.316 238.602 190.199 238.889 190.043 239.143C189.893 239.39 189.711 239.608 189.496 239.797C189.281 239.986 189.037 240.148 188.764 240.285V240.383C189.07 240.454 189.369 240.581 189.662 240.764C189.962 240.946 190.229 241.18 190.463 241.467C190.697 241.753 190.886 242.089 191.029 242.473C191.179 242.85 191.254 243.27 191.254 243.732C191.254 244.514 191.127 245.178 190.873 245.725C190.619 246.265 190.268 246.704 189.818 247.043C189.376 247.375 188.848 247.619 188.236 247.775C187.624 247.925 186.96 248 186.244 248H180.795V233.957H186.029ZM185.111 239.465C185.6 239.465 186.016 239.432 186.361 239.367C186.706 239.302 186.986 239.198 187.201 239.055C187.423 238.911 187.585 238.726 187.689 238.498C187.794 238.27 187.846 237.993 187.846 237.668C187.846 237.336 187.794 237.056 187.689 236.828C187.585 236.6 187.423 236.415 187.201 236.271C186.986 236.128 186.706 236.024 186.361 235.959C186.016 235.894 185.6 235.861 185.111 235.861H183.471V239.465H185.111ZM185.463 246.096C186.492 246.096 187.266 245.913 187.787 245.549C188.314 245.184 188.578 244.579 188.578 243.732C188.578 242.886 188.314 242.281 187.787 241.916C187.266 241.551 186.492 241.369 185.463 241.369H183.471V246.096H185.463ZM196.811 233.957V245.998H202.289V248H194.086V233.957H196.811ZM211.693 233.957L216.996 248H214.242L212.641 243.684H208.012L206.41 248H203.656L208.959 233.957H211.693ZM210.326 236.857L208.734 241.721H211.918L210.326 236.857Z" fill="black"/>
</g>
<defs>
<clipPath id="clip0">
<rect width="581.852" height="521.108" fill="white"/>
</clipPath>
</defs>
</svg>
